<svg width="113" height="74" viewBox="0 0 113 74" fill="none" xmlns="http://www.w3.org/2000/svg">
<path d="M23.6963 0H89.3339C93.4876 0 96.8505 3.36251 96.8505 7.5166V32.5715C96.8505 36.7253 93.4879 40.0881 89.3339 40.0881H65.7956L69.0265 48L54.8176 40.0881H23.7297C19.576 40.0881 16.2131 36.7256 16.2131 32.5715V7.5166C16.1802 3.39559 19.5426 0 23.6963 0Z" fill="#7F54B3"/>
<path d="M20.8042 6.84913C21.2631 6.22634 21.9515 5.89853 22.8693 5.83298C24.541 5.70186 25.4916 6.48857 25.7211 8.1931C26.7373 15.0441 27.8518 20.8459 29.032 25.5991L36.2106 11.9301C36.8662 10.6845 37.6856 10.0289 38.669 9.96337C40.1113 9.86503 40.9964 10.7828 41.3569 12.7169C42.1764 17.0766 43.2254 20.7806 44.471 23.9273C45.3233 15.6012 46.7656 9.60287 48.798 5.89859C49.2897 4.98077 50.0108 4.52187 50.9614 4.45628C51.7154 4.39073 52.4038 4.62018 53.0266 5.11187C53.6493 5.60357 53.9772 6.22637 54.0427 6.9803C54.0755 7.57033 53.9771 8.062 53.7149 8.5537C52.4365 10.9138 51.3876 14.8803 50.5354 20.3869C49.7159 25.7301 49.4209 29.893 49.6176 32.8759C49.6831 33.6954 49.552 34.4166 49.2242 35.0394C48.8309 35.7605 48.2408 36.1539 47.4869 36.2194C46.6347 36.285 45.7496 35.8916 44.8974 35.0066C41.8489 31.8925 39.4232 27.238 37.6532 21.0425C35.5226 25.2381 33.9493 28.3852 32.9331 30.483C30.9991 34.187 29.3602 36.0883 27.9834 36.1865C27.0983 36.2521 26.3444 35.4982 25.6888 33.9248C24.0171 29.6305 22.2141 21.3375 20.2801 9.0453C20.149 8.19304 20.3457 7.43911 20.8046 6.84907L20.8042 6.84913ZM91.2485 11.9954C90.0684 9.93033 88.3311 8.68458 86.0039 8.19288C85.3811 8.06176 84.791 7.9962 84.2338 7.9962C81.087 7.9962 78.5303 9.63519 76.5307 12.9132C74.8262 15.6994 73.9739 18.7808 73.9739 22.1569C73.9739 24.6809 74.4984 26.8442 75.5473 28.6472C76.7274 30.7123 78.4647 31.9581 80.7919 32.4498C81.4147 32.5809 82.0047 32.6465 82.562 32.6465C85.7415 32.6465 88.2983 31.0075 90.2651 27.7295C91.9696 24.9104 92.8219 21.8291 92.8219 18.453C92.8546 15.8962 92.2974 13.7657 91.2485 11.9954ZM87.1183 21.0753C86.6594 23.2388 85.8399 24.8448 84.6271 25.9268C83.6765 26.7791 82.7915 27.1396 81.972 26.9757C81.1852 26.8118 80.5296 26.1235 80.038 24.8451C79.6446 23.8289 79.4479 22.8128 79.4479 21.8622C79.4479 21.0427 79.5135 20.2232 79.6774 19.4693C79.9724 18.1253 80.5297 16.8141 81.4147 15.5685C82.4964 13.9623 83.6437 13.3067 84.8238 13.5361C85.6105 13.7 86.2661 14.3884 86.7578 15.6668C87.1512 16.683 87.3478 17.6991 87.3478 18.6497C87.3478 19.502 87.2822 20.3214 87.1183 21.0753ZM70.7285 11.9954C69.5484 9.93033 67.7783 8.68458 65.4839 8.19288C64.8611 8.06176 64.271 7.9962 63.7138 7.9962C60.567 7.9962 58.0103 9.63519 56.0107 12.9132C54.3062 15.6994 53.4539 18.7808 53.4539 22.1569C53.4539 24.6809 53.9784 26.8442 55.0273 28.6472C56.2074 30.7123 57.9447 31.9581 60.2719 32.4498C60.8947 32.5809 61.4847 32.6465 62.042 32.6465C65.2215 32.6465 67.7783 31.0075 69.7451 27.7295C71.4496 24.9104 72.3019 21.8291 72.3019 18.453C72.3019 15.8962 71.7774 13.7657 70.7285 11.9954ZM66.5656 21.0753C66.1067 23.2388 65.2872 24.8448 64.0743 25.9268C63.1237 26.7791 62.2387 27.1396 61.4192 26.9757C60.6325 26.8118 59.9769 26.1235 59.4852 24.8451C59.0919 23.8289 58.8952 22.8128 58.8952 21.8622C58.8952 21.0427 58.9607 20.2232 59.1246 19.4693C59.4197 18.1253 59.9769 16.8141 60.8619 15.5685C61.9436 13.9623 63.0909 13.3067 64.2711 13.5361C65.0578 13.7 65.7134 14.3884 66.205 15.6668C66.5984 16.683 66.7951 17.6991 66.7951 18.6497C66.8279 19.502 66.7295 20.3214 66.5656 21.0753Z" fill="white"/>
<path d="M2.71875 73.0547L0 61.625H2.07812L3.84375 69.5391C3.88542 69.7109 3.91406 69.8516 3.92969 69.9609C3.94531 70.0651 3.96354 70.2057 3.98438 70.3828H4.05469C4.07552 70.2057 4.09375 70.0651 4.10938 69.9609C4.125 69.8516 4.15104 69.7109 4.1875 69.5391L6.13281 61.625H8.39844L10.375 69.5312C10.4219 69.7031 10.4505 69.8438 10.4609 69.9531C10.4766 70.0625 10.4948 70.2057 10.5156 70.3828H10.5859C10.6016 70.2057 10.6198 70.0625 10.6406 69.9531C10.6615 69.8438 10.6875 69.7031 10.7188 69.5312L12.4219 61.625H14.3125L11.6328 73.0547H9.38281L7.35938 65.125C7.31771 64.9531 7.28125 64.7943 7.25 64.6484C7.22396 64.4974 7.20052 64.3333 7.17969 64.1562H7.125C7.10417 64.3333 7.07812 64.4974 7.04688 64.6484C7.02083 64.7943 6.98698 64.9531 6.94531 65.125L4.92969 73.0547H2.71875ZM14.9297 69.0312V68.7812C14.9297 67.5104 15.3047 66.4922 16.0547 65.7266C16.8099 64.9609 17.8021 64.5781 19.0312 64.5781C20.2604 64.5781 21.25 64.9609 22 65.7266C22.7552 66.4922 23.1328 67.5104 23.1328 68.7812V69.0312C23.1328 70.2969 22.7552 71.3151 22 72.0859C21.25 72.8516 20.2604 73.2344 19.0312 73.2344C17.8021 73.2344 16.8099 72.8516 16.0547 72.0859C15.3047 71.3151 14.9297 70.2969 14.9297 69.0312ZM17.0078 68.6953V69.1172C17.0078 69.9036 17.1797 70.526 17.5234 70.9844C17.8724 71.4375 18.375 71.6641 19.0312 71.6641C19.6875 71.6641 20.1875 71.4375 20.5312 70.9844C20.8802 70.526 21.0547 69.901 21.0547 69.1094V68.6953C21.0547 67.9089 20.8802 67.2891 20.5312 66.8359C20.1823 66.3776 19.6823 66.1484 19.0312 66.1484C18.3802 66.1484 17.8802 66.3776 17.5312 66.8359C17.1823 67.2891 17.0078 67.9089 17.0078 68.6953ZM24.3203 69.0312V68.7812C24.3203 67.5104 24.6953 66.4922 25.4453 65.7266C26.2005 64.9609 27.1927 64.5781 28.4219 64.5781C29.651 64.5781 30.6406 64.9609 31.3906 65.7266C32.1458 66.4922 32.5234 67.5104 32.5234 68.7812V69.0312C32.5234 70.2969 32.1458 71.3151 31.3906 72.0859C30.6406 72.8516 29.651 73.2344 28.4219 73.2344C27.1927 73.2344 26.2005 72.8516 25.4453 72.0859C24.6953 71.3151 24.3203 70.2969 24.3203 69.0312ZM26.3984 68.6953V69.1172C26.3984 69.9036 26.5703 70.526 26.9141 70.9844C27.263 71.4375 27.7656 71.6641 28.4219 71.6641C29.0781 71.6641 29.5781 71.4375 29.9219 70.9844C30.2708 70.526 30.4453 69.901 30.4453 69.1094V68.6953C30.4453 67.9089 30.2708 67.2891 29.9219 66.8359C29.5729 66.3776 29.0729 66.1484 28.4219 66.1484C27.7708 66.1484 27.2708 66.3776 26.9219 66.8359C26.5729 67.2891 26.3984 67.9089 26.3984 68.6953ZM33.9219 67.6641V66.9609C33.9219 65.1589 34.3802 63.7812 35.2969 62.8281C36.2188 61.875 37.4062 61.3984 38.8594 61.3984C40.2604 61.3984 41.3646 61.7708 42.1719 62.5156C42.9844 63.2552 43.3906 64.1927 43.3906 65.3281V65.4922H41.2812V65.2969C41.2812 64.6042 41.0781 64.0573 40.6719 63.6562C40.2708 63.25 39.6615 63.0469 38.8438 63.0469C38.0208 63.0469 37.3542 63.3438 36.8438 63.9375C36.3333 64.526 36.0781 65.4714 36.0781 66.7734V67.8594C36.0781 69.0625 36.3307 69.9844 36.8359 70.625C37.3411 71.2604 38.0182 71.5781 38.8672 71.5781C39.6432 71.5781 40.2266 71.3698 40.6172 70.9531C41.0078 70.5312 41.2266 69.9844 41.2734 69.3125L41.2812 69.1328H43.3906L43.3828 69.3203C43.3151 70.4349 42.8932 71.3646 42.1172 72.1094C41.3464 72.8542 40.2604 73.2266 38.8594 73.2266C37.401 73.2266 36.2135 72.7474 35.2969 71.7891C34.3802 70.8307 33.9219 69.4557 33.9219 67.6641ZM44.4766 69.0312V68.7812C44.4766 67.5104 44.8516 66.4922 45.6016 65.7266C46.3568 64.9609 47.349 64.5781 48.5781 64.5781C49.8073 64.5781 50.7969 64.9609 51.5469 65.7266C52.3021 66.4922 52.6797 67.5104 52.6797 68.7812V69.0312C52.6797 70.2969 52.3021 71.3151 51.5469 72.0859C50.7969 72.8516 49.8073 73.2344 48.5781 73.2344C47.349 73.2344 46.3568 72.8516 45.6016 72.0859C44.8516 71.3151 44.4766 70.2969 44.4766 69.0312ZM46.5547 68.6953V69.1172C46.5547 69.9036 46.7266 70.526 47.0703 70.9844C47.4193 71.4375 47.9219 71.6641 48.5781 71.6641C49.2344 71.6641 49.7344 71.4375 50.0781 70.9844C50.4271 70.526 50.6016 69.901 50.6016 69.1094V68.6953C50.6016 67.9089 50.4271 67.2891 50.0781 66.8359C49.7292 66.3776 49.2292 66.1484 48.5781 66.1484C47.9271 66.1484 47.4271 66.3776 47.0781 66.8359C46.7292 67.2891 46.5547 67.9089 46.5547 68.6953ZM54.3203 73V64.8125H56.2266L56.2812 65.7969H56.3281C56.5885 65.4375 56.9219 65.1589 57.3281 64.9609C57.7396 64.7578 58.1849 64.6562 58.6641 64.6562C59.2318 64.6562 59.7214 64.7734 60.1328 65.0078C60.5495 65.237 60.8542 65.5885 61.0469 66.0625H61.0859C61.3828 65.5885 61.7604 65.237 62.2188 65.0078C62.6823 64.7734 63.1823 64.6562 63.7188 64.6562C64.5469 64.6562 65.2083 64.9062 65.7031 65.4062C66.1979 65.901 66.4453 66.7318 66.4453 67.8984V73H64.4141V67.8125C64.4141 67.2708 64.2995 66.875 64.0703 66.625C63.8411 66.375 63.5078 66.25 63.0703 66.25C62.6901 66.2448 62.3568 66.349 62.0703 66.5625C61.7891 66.776 61.5651 67.0625 61.3984 67.4219V73H59.3672V67.8281C59.3672 67.276 59.25 66.875 59.0156 66.625C58.7865 66.375 58.4505 66.25 58.0078 66.25C57.6328 66.25 57.3047 66.3542 57.0234 66.5625C56.7422 66.7708 56.5182 67.0573 56.3516 67.4219V73H54.3203ZM68.4766 73V64.8125H70.3828L70.4375 65.7969H70.4844C70.7448 65.4375 71.0781 65.1589 71.4844 64.9609C71.8958 64.7578 72.3411 64.6562 72.8203 64.6562C73.388 64.6562 73.8776 64.7734 74.2891 65.0078C74.7057 65.237 75.0104 65.5885 75.2031 66.0625H75.2422C75.5391 65.5885 75.9167 65.237 76.375 65.0078C76.8385 64.7734 77.3385 64.6562 77.875 64.6562C78.7031 64.6562 79.3646 64.9062 79.8594 65.4062C80.3542 65.901 80.6016 66.7318 80.6016 67.8984V73H78.5703V67.8125C78.5703 67.2708 78.4557 66.875 78.2266 66.625C77.9974 66.375 77.6641 66.25 77.2266 66.25C76.8464 66.2448 76.513 66.349 76.2266 66.5625C75.9453 66.776 75.7214 67.0625 75.5547 67.4219V73H73.5234V67.8281C73.5234 67.276 73.4062 66.875 73.1719 66.625C72.9427 66.375 72.6068 66.25 72.1641 66.25C71.7891 66.25 71.4609 66.3542 71.1797 66.5625C70.8984 66.7708 70.6745 67.0573 70.5078 67.4219V73H68.4766ZM82.1797 69.0312V68.7812C82.1797 67.526 82.5469 66.513 83.2812 65.7422C84.0156 64.9661 84.9661 64.5781 86.1328 64.5781C87.2995 64.5781 88.2109 64.9401 88.8672 65.6641C89.5234 66.388 89.8516 67.3802 89.8516 68.6406V69.3906H83.5156V68.0469H87.8359V67.875C87.8359 67.375 87.6901 66.9531 87.3984 66.6094C87.1068 66.2656 86.6901 66.0938 86.1484 66.0938C85.5078 66.0938 85.0234 66.3333 84.6953 66.8125C84.3724 67.2917 84.2109 67.9167 84.2109 68.6875V69.1094C84.2109 69.875 84.3854 70.4974 84.7344 70.9766C85.0833 71.4557 85.6068 71.6953 86.3047 71.6953C86.7682 71.6953 87.1667 71.5859 87.5 71.3672C87.8385 71.1484 88.112 70.8932 88.3203 70.6016L89.7344 71.5469C89.474 72.0104 89.0469 72.4089 88.4531 72.7422C87.8646 73.0703 87.1562 73.2344 86.3281 73.2344C85.0208 73.2344 84.0026 72.849 83.2734 72.0781C82.5443 71.3021 82.1797 70.2865 82.1797 69.0312ZM91.4141 73V64.8125H93.3359L93.3828 65.7656H93.4297C93.6068 65.4479 93.849 65.1719 94.1562 64.9375C94.4688 64.7031 94.8229 64.5859 95.2188 64.5859C95.3281 64.5859 95.4401 64.599 95.5547 64.625C95.6745 64.651 95.7578 64.6745 95.8047 64.6953V66.4766C95.7109 66.4505 95.6094 66.4323 95.5 66.4219C95.3958 66.4115 95.2786 66.4062 95.1484 66.4062C94.7578 66.4062 94.4115 66.5182 94.1094 66.7422C93.8125 66.9609 93.5938 67.2396 93.4531 67.5781V73H91.4141ZM96.4922 69.0312V68.7812C96.4922 67.5052 96.8568 66.487 97.5859 65.7266C98.3151 64.9609 99.2943 64.5781 100.523 64.5781C101.685 64.5781 102.568 64.875 103.172 65.4688C103.781 66.0573 104.102 66.7474 104.133 67.5391L104.141 67.6484H102.156V67.5703C102.156 67.1641 102.021 66.8229 101.75 66.5469C101.484 66.2656 101.073 66.125 100.516 66.125C99.8646 66.125 99.3776 66.362 99.0547 66.8359C98.7318 67.3099 98.5703 67.9297 98.5703 68.6953V69.1172C98.5703 69.8776 98.7292 70.4974 99.0469 70.9766C99.3646 71.4557 99.8542 71.6953 100.516 71.6953C101.104 71.6953 101.523 71.5495 101.773 71.2578C102.029 70.9661 102.156 70.625 102.156 70.2344V70.1641H104.133V70.2422C104.133 71.0339 103.82 71.7318 103.195 72.3359C102.576 72.9349 101.688 73.2344 100.531 73.2344C99.3021 73.2344 98.3203 72.8516 97.5859 72.0859C96.8568 71.3203 96.4922 70.3021 96.4922 69.0312ZM105.148 69.0312V68.7812C105.148 67.526 105.516 66.513 106.25 65.7422C106.984 64.9661 107.935 64.5781 109.102 64.5781C110.268 64.5781 111.18 64.9401 111.836 65.6641C112.492 66.388 112.82 67.3802 112.82 68.6406V69.3906H106.484V68.0469H110.805V67.875C110.805 67.375 110.659 66.9531 110.367 66.6094C110.076 66.2656 109.659 66.0938 109.117 66.0938C108.477 66.0938 107.992 66.3333 107.664 66.8125C107.341 67.2917 107.18 67.9167 107.18 68.6875V69.1094C107.18 69.875 107.354 70.4974 107.703 70.9766C108.052 71.4557 108.576 71.6953 109.273 71.6953C109.737 71.6953 110.135 71.5859 110.469 71.3672C110.807 71.1484 111.081 70.8932 111.289 70.6016L112.703 71.5469C112.443 72.0104 112.016 72.4089 111.422 72.7422C110.833 73.0703 110.125 73.2344 109.297 73.2344C107.99 73.2344 106.971 72.849 106.242 72.0781C105.513 71.3021 105.148 70.2865 105.148 69.0312Z" fill="white"/>
</svg>
