<svg width="172" height="83" viewBox="0 0 172 83" fill="none" xmlns="http://www.w3.org/2000/svg">
<path d="M87.941 3.51771C91.6865 3.77298 95.2282 4.21757 98.51 5.37624C101.027 6.26543 105.67 8.46228 103.341 11.6791C100.352 15.8097 89.0536 17.039 83.642 16.7346C79.9417 16.5262 76.4304 15.9255 73.283 14.7549C70.989 13.9006 66.0841 11.5991 68.2484 8.42108C70.8087 4.6614 81.8009 3.09933 87.941 3.51771ZM88.6194 0.123431C94.1924 0.663982 103.186 1.69424 106.576 6.32644C107.407 7.46215 107.32 8.05889 107.311 9.6748C107.305 10.8161 107.414 12.5263 107.106 13.5487C106.05 17.0422 100.861 19.231 97.6905 20.2677C89.717 22.8783 77.6144 22.4931 70.0597 18.7128C64.6714 16.0166 64.0283 13.4932 64.3742 8.21347C64.6053 4.6899 70.2218 2.48589 73.8158 1.485C77.7655 0.385761 84.3413 -0.291901 88.6194 0.123431Z" fill="white"/>
<path d="M73.9368 46.5377C74.8839 46.4299 76.5264 45.1888 79.583 46.1248C84.4047 47.6021 85.9771 52.973 84.8465 53.7908C84.421 54.0984 79.2189 53.943 78.2242 53.9422L57.7281 53.9398C55.2447 53.9398 53.8301 54.2093 52.056 52.8501C49.1547 50.6278 48.571 46.5519 51.409 43.6196C52.1254 42.8794 53.0447 42.667 53.4102 42.2842C54.0299 41.6359 54.3243 38.8725 58.304 36.8515C61.9508 35.0002 66.1531 35.7943 68.976 37.8184C71.3429 39.516 73.5493 42.3556 73.9368 46.5377Z" fill="white"/>
<path d="M107.409 37.044C109.907 37.0059 112.236 38.5069 113.329 39.6918C114.685 41.1627 115.743 42.934 115.789 45.814C117.804 45.7855 118.695 45.3338 120.414 46.5622C123.29 48.6171 123.01 52.5972 120.211 53.6933C118.949 54.1878 100.743 53.9381 97.4115 53.9302C95.699 53.9262 93.5037 54.2195 92.2118 53.2843C92.5629 53.0307 96.5256 52.3365 97.4797 52.0448C100.442 51.1374 104.104 49.5769 106.005 47.3397C107.389 45.711 107.585 44.6784 107.473 42.0115L107.104 42.4823C106.961 42.7105 106.9 42.8643 106.787 43.037C103.567 48.0046 93.5647 49.9042 88.1089 50.0271C87.8981 49.7045 87.6366 48.8384 87.4448 48.4222C86.4934 46.3601 85.7389 45.8442 84.3369 44.4097C89.8604 43.9469 92.2767 44.4447 98.2032 42.5917C102.123 41.3657 106.005 39.2338 107.395 36.1406L107.409 37.044Z" fill="white"/>
<path d="M107.345 16.5829C107.404 23.1552 107.883 25.3085 101.117 28.7877C97.0597 30.8736 90.9945 31.8793 85.7829 31.8769C79.4812 31.8737 68.9668 30.0746 65.427 24.7941C63.8848 22.4942 64.3536 19.5644 64.367 16.418L65.0985 17.568C65.3597 17.9396 65.6759 18.3232 65.9434 18.6117C66.407 19.111 67.2681 19.7854 67.9393 20.2483C69.1927 21.1121 71.3436 22.0814 72.9995 22.5981C80.7916 25.0287 90.8312 25.1698 98.5773 22.6156C101.059 21.7976 103.894 20.5209 105.622 18.7552C106.808 17.5434 106.927 16.9918 107.345 16.5829Z" fill="white"/>
<path d="M64.3647 31.8547L64.3517 26.3008C64.5228 26.4624 64.4388 26.3602 64.6089 26.6003C65.7354 28.1917 65.6696 28.5245 67.9865 30.0858C75.4822 35.1357 90.0792 35.3251 98.5591 32.468C100.486 31.8183 102.059 31.1295 103.638 30.1451C104.66 29.508 105.871 28.4928 106.561 27.5457L107.341 26.3189C107.444 32.4586 108.059 34.9629 102.125 38.2289C95.871 41.6708 87.7398 42.3112 80.4054 41.4901C79.4318 41.3807 77.605 41.2127 76.7419 40.9892C75.9388 40.7824 76.5375 41.0938 75.7648 39.7529C73.5068 35.8332 70.1189 32.7122 64.3647 31.8547Z" fill="white"/>
<path d="M1.54688 79V67.625H5.21094C6.71094 67.625 7.96094 68.099 8.96094 69.0469C9.96615 69.9896 10.4688 71.2917 10.4688 72.9531V73.6641C10.4688 75.3307 9.96875 76.638 8.96875 77.5859C7.96875 78.5286 6.71615 79 5.21094 79H1.54688ZM3.64062 77.3984H5.17969C6.13281 77.3984 6.89583 77.0833 7.46875 76.4531C8.04688 75.8177 8.33594 74.9036 8.33594 73.7109V72.9141C8.33594 71.7214 8.04688 70.8099 7.46875 70.1797C6.89062 69.5495 6.1276 69.2344 5.17969 69.2344H3.64062V77.3984ZM11.8984 76.5938C11.8984 75.7083 12.2422 75.0365 12.9297 74.5781C13.6172 74.1198 14.487 73.888 15.5391 73.8828H17.2266V73.3906C17.2266 72.9792 17.1198 72.6484 16.9062 72.3984C16.6979 72.1432 16.3307 72.0156 15.8047 72.0156C15.2786 72.0156 14.9036 72.1198 14.6797 72.3281C14.4609 72.5365 14.3516 72.7891 14.3516 73.0859V73.1875H12.3438V73.0859C12.3438 72.3776 12.6693 71.7839 13.3203 71.3047C13.9714 70.8255 14.8255 70.5859 15.8828 70.5859C16.9453 70.5859 17.7734 70.8177 18.3672 71.2812C18.9609 71.7396 19.2578 72.4453 19.2578 73.3984V77.1484C19.2578 77.4818 19.2865 77.7995 19.3438 78.1016C19.401 78.3984 19.4792 78.6562 19.5781 78.875V79H17.5859C17.5234 78.875 17.4661 78.7135 17.4141 78.5156C17.362 78.3177 17.3255 78.1224 17.3047 77.9297C17.138 78.2474 16.8333 78.5312 16.3906 78.7812C15.9479 79.026 15.388 79.1484 14.7109 79.1484C13.9193 79.1484 13.2526 78.9349 12.7109 78.5078C12.1693 78.0755 11.8984 77.4375 11.8984 76.5938ZM13.9297 76.4297C13.9297 76.8255 14.0443 77.1406 14.2734 77.375C14.5026 77.6094 14.862 77.7266 15.3516 77.7266C15.8672 77.7266 16.3073 77.5599 16.6719 77.2266C17.0417 76.888 17.2266 76.5026 17.2266 76.0703V75.1562H15.8203C15.1849 75.1562 14.7109 75.2682 14.3984 75.4922C14.0859 75.7161 13.9297 76.0286 13.9297 76.4297ZM20.3203 72.3125V70.8125H25.2578V72.3125H20.3203ZM21.625 76.6953V71.6016L21.6328 71.3828V68.8203H23.6484V76.6406C23.6484 77.0208 23.7188 77.2839 23.8594 77.4297C24.0052 77.5755 24.2135 77.6484 24.4844 77.6484C24.6094 77.6484 24.7344 77.6354 24.8594 77.6094C24.9896 77.5781 25.1146 77.5391 25.2344 77.4922V78.9922C25.1094 79.0547 24.9349 79.1094 24.7109 79.1562C24.4922 79.2031 24.2526 79.2266 23.9922 79.2266C23.2734 79.2266 22.6979 79.0234 22.2656 78.6172C21.8385 78.2109 21.625 77.5703 21.625 76.6953ZM26.2266 76.5938C26.2266 75.7083 26.5703 75.0365 27.2578 74.5781C27.9453 74.1198 28.8151 73.888 29.8672 73.8828H31.5547V73.3906C31.5547 72.9792 31.4479 72.6484 31.2344 72.3984C31.026 72.1432 30.6589 72.0156 30.1328 72.0156C29.6068 72.0156 29.2318 72.1198 29.0078 72.3281C28.7891 72.5365 28.6797 72.7891 28.6797 73.0859V73.1875H26.6719V73.0859C26.6719 72.3776 26.9974 71.7839 27.6484 71.3047C28.2995 70.8255 29.1536 70.5859 30.2109 70.5859C31.2734 70.5859 32.1016 70.8177 32.6953 71.2812C33.2891 71.7396 33.5859 72.4453 33.5859 73.3984V77.1484C33.5859 77.4818 33.6146 77.7995 33.6719 78.1016C33.7292 78.3984 33.8073 78.6562 33.9062 78.875V79H31.9141C31.8516 78.875 31.7943 78.7135 31.7422 78.5156C31.6901 78.3177 31.6536 78.1224 31.6328 77.9297C31.4661 78.2474 31.1615 78.5312 30.7188 78.7812C30.276 79.026 29.7161 79.1484 29.0391 79.1484C28.2474 79.1484 27.5807 78.9349 27.0391 78.5078C26.4974 78.0755 26.2266 77.4375 26.2266 76.5938ZM28.2578 76.4297C28.2578 76.8255 28.3724 77.1406 28.6016 77.375C28.8307 77.6094 29.1901 77.7266 29.6797 77.7266C30.1953 77.7266 30.6354 77.5599 31 77.2266C31.3698 76.888 31.5547 76.5026 31.5547 76.0703V75.1562H30.1484C29.513 75.1562 29.0391 75.2682 28.7266 75.4922C28.4141 75.7161 28.2578 76.0286 28.2578 76.4297ZM35.6953 79V67.0547H37.7266V71.7031C37.9818 71.375 38.3047 71.1172 38.6953 70.9297C39.0911 70.7422 39.5521 70.6484 40.0781 70.6484C41.1302 70.6484 41.9661 71.0339 42.5859 71.8047C43.2057 72.5755 43.5156 73.5651 43.5156 74.7734V75.0234C43.5156 76.237 43.2031 77.2292 42.5781 78C41.9583 78.7708 41.125 79.1562 40.0781 79.1562C39.5417 79.1562 39.0573 79.0495 38.625 78.8359C38.1927 78.6224 37.8854 78.3542 37.7031 78.0312H37.6562L37.6016 79H35.6953ZM37.7266 76.3438C37.862 76.6719 38.0833 76.9635 38.3906 77.2188C38.6979 77.4688 39.0859 77.5938 39.5547 77.5938C40.1953 77.5938 40.6693 77.3594 40.9766 76.8906C41.2839 76.4219 41.4375 75.8229 41.4375 75.0938V74.7109C41.4375 73.9818 41.2839 73.3854 40.9766 72.9219C40.6745 72.4531 40.1979 72.2188 39.5469 72.2188C39.0885 72.2188 38.7031 72.3464 38.3906 72.6016C38.0833 72.8516 37.862 73.1406 37.7266 73.4688V76.3438ZM44.7266 76.5938C44.7266 75.7083 45.0703 75.0365 45.7578 74.5781C46.4453 74.1198 47.3151 73.888 48.3672 73.8828H50.0547V73.3906C50.0547 72.9792 49.9479 72.6484 49.7344 72.3984C49.526 72.1432 49.1589 72.0156 48.6328 72.0156C48.1068 72.0156 47.7318 72.1198 47.5078 72.3281C47.2891 72.5365 47.1797 72.7891 47.1797 73.0859V73.1875H45.1719V73.0859C45.1719 72.3776 45.4974 71.7839 46.1484 71.3047C46.7995 70.8255 47.6536 70.5859 48.7109 70.5859C49.7734 70.5859 50.6016 70.8177 51.1953 71.2812C51.7891 71.7396 52.0859 72.4453 52.0859 73.3984V77.1484C52.0859 77.4818 52.1146 77.7995 52.1719 78.1016C52.2292 78.3984 52.3073 78.6562 52.4062 78.875V79H50.4141C50.3516 78.875 50.2943 78.7135 50.2422 78.5156C50.1901 78.3177 50.1536 78.1224 50.1328 77.9297C49.9661 78.2474 49.6615 78.5312 49.2188 78.7812C48.776 79.026 48.2161 79.1484 47.5391 79.1484C46.7474 79.1484 46.0807 78.9349 45.5391 78.5078C44.9974 78.0755 44.7266 77.4375 44.7266 76.5938ZM46.7578 76.4297C46.7578 76.8255 46.8724 77.1406 47.1016 77.375C47.3307 77.6094 47.6901 77.7266 48.1797 77.7266C48.6953 77.7266 49.1354 77.5599 49.5 77.2266C49.8698 76.888 50.0547 76.5026 50.0547 76.0703V75.1562H48.6484C48.013 75.1562 47.5391 75.2682 47.2266 75.4922C46.9141 75.7161 46.7578 76.0286 46.7578 76.4297ZM53.6875 76.4688L55.6875 76.4766V76.5781C55.6875 76.9896 55.8307 77.2943 56.1172 77.4922C56.4089 77.6901 56.7969 77.7891 57.2812 77.7891C57.7708 77.7891 58.1458 77.6953 58.4062 77.5078C58.6719 77.3203 58.8047 77.0703 58.8047 76.7578C58.8047 76.4505 58.6797 76.2188 58.4297 76.0625C58.1797 75.9062 57.612 75.7318 56.7266 75.5391C55.7891 75.3411 55.0859 75.0443 54.6172 74.6484C54.1536 74.2474 53.9219 73.7135 53.9219 73.0469C53.9219 72.3021 54.224 71.7057 54.8281 71.2578C55.4323 70.8047 56.2448 70.5781 57.2656 70.5781C58.2865 70.5781 59.1042 70.8099 59.7188 71.2734C60.3385 71.7318 60.6484 72.3594 60.6484 73.1562V73.2344H58.6562V73.125C58.6562 72.7812 58.5417 72.513 58.3125 72.3203C58.0833 72.1276 57.7318 72.0312 57.2578 72.0312C56.7891 72.0312 56.4453 72.1146 56.2266 72.2812C56.013 72.4479 55.9062 72.6615 55.9062 72.9219C55.9062 73.1875 56.0365 73.3984 56.2969 73.5547C56.5625 73.7057 57.1432 73.8776 58.0391 74.0703C58.9714 74.2682 59.6667 74.5651 60.125 74.9609C60.5833 75.3568 60.8125 75.9089 60.8125 76.6172C60.8125 77.4193 60.5156 78.0573 59.9219 78.5312C59.3281 79 58.4505 79.2344 57.2891 79.2344C56.138 79.2344 55.25 78.9974 54.625 78.5234C54 78.0495 53.6875 77.3906 53.6875 76.5469V76.4688ZM61.9922 75.0312V74.7812C61.9922 73.526 62.3594 72.513 63.0938 71.7422C63.8281 70.9661 64.7786 70.5781 65.9453 70.5781C67.112 70.5781 68.0234 70.9401 68.6797 71.6641C69.3359 72.388 69.6641 73.3802 69.6641 74.6406V75.3906H63.3281V74.0469H67.6484V73.875C67.6484 73.375 67.5026 72.9531 67.2109 72.6094C66.9193 72.2656 66.5026 72.0938 65.9609 72.0938C65.3203 72.0938 64.8359 72.3333 64.5078 72.8125C64.1849 73.2917 64.0234 73.9167 64.0234 74.6875V75.1094C64.0234 75.875 64.1979 76.4974 64.5469 76.9766C64.8958 77.4557 65.4193 77.6953 66.1172 77.6953C66.5807 77.6953 66.9792 77.5859 67.3125 77.3672C67.651 77.1484 67.9245 76.8932 68.1328 76.6016L69.5469 77.5469C69.2865 78.0104 68.8594 78.4089 68.2656 78.7422C67.6771 79.0703 66.9688 79.2344 66.1406 79.2344C64.8333 79.2344 63.8151 78.849 63.0859 78.0781C62.3568 77.3021 61.9922 76.2865 61.9922 75.0312ZM73.9531 69.2578V67.625H82.9609V69.2578H79.5078V79H77.4062V69.2578H73.9531ZM82.7109 75.0312V74.7812C82.7109 73.526 83.0781 72.513 83.8125 71.7422C84.5469 70.9661 85.4974 70.5781 86.6641 70.5781C87.8307 70.5781 88.7422 70.9401 89.3984 71.6641C90.0547 72.388 90.3828 73.3802 90.3828 74.6406V75.3906H84.0469V74.0469H88.3672V73.875C88.3672 73.375 88.2214 72.9531 87.9297 72.6094C87.638 72.2656 87.2214 72.0938 86.6797 72.0938C86.0391 72.0938 85.5547 72.3333 85.2266 72.8125C84.9036 73.2917 84.7422 73.9167 84.7422 74.6875V75.1094C84.7422 75.875 84.9167 76.4974 85.2656 76.9766C85.6146 77.4557 86.138 77.6953 86.8359 77.6953C87.2995 77.6953 87.6979 77.5859 88.0312 77.3672C88.3698 77.1484 88.6432 76.8932 88.8516 76.6016L90.2656 77.5469C90.0052 78.0104 89.5781 78.4089 88.9844 78.7422C88.3958 79.0703 87.6875 79.2344 86.8594 79.2344C85.5521 79.2344 84.5339 78.849 83.8047 78.0781C83.0755 77.3021 82.7109 76.2865 82.7109 75.0312ZM91.4922 75.0312V74.7812C91.4922 73.5052 91.8568 72.487 92.5859 71.7266C93.3151 70.9609 94.2943 70.5781 95.5234 70.5781C96.6849 70.5781 97.5677 70.875 98.1719 71.4688C98.7812 72.0573 99.1016 72.7474 99.1328 73.5391L99.1406 73.6484H97.1562V73.5703C97.1562 73.1641 97.0208 72.8229 96.75 72.5469C96.4844 72.2656 96.0729 72.125 95.5156 72.125C94.8646 72.125 94.3776 72.362 94.0547 72.8359C93.7318 73.3099 93.5703 73.9297 93.5703 74.6953V75.1172C93.5703 75.8776 93.7292 76.4974 94.0469 76.9766C94.3646 77.4557 94.8542 77.6953 95.5156 77.6953C96.1042 77.6953 96.5234 77.5495 96.7734 77.2578C97.0286 76.9661 97.1562 76.625 97.1562 76.2344V76.1641H99.1328V76.2422C99.1328 77.0339 98.8203 77.7318 98.1953 78.3359C97.5755 78.9349 96.6875 79.2344 95.5312 79.2344C94.3021 79.2344 93.3203 78.8516 92.5859 78.0859C91.8568 77.3203 91.4922 76.3021 91.4922 75.0312ZM100.602 79V67.0547H102.633V71.875C102.888 71.5104 103.227 71.2161 103.648 70.9922C104.07 70.763 104.568 70.6484 105.141 70.6484C105.906 70.6484 106.536 70.8906 107.031 71.375C107.531 71.8542 107.781 72.6432 107.781 73.7422V79H105.75V73.8359C105.75 73.263 105.622 72.8568 105.367 72.6172C105.112 72.3724 104.76 72.25 104.312 72.25C103.922 72.25 103.583 72.3594 103.297 72.5781C103.01 72.7917 102.789 73.0859 102.633 73.4609V79H100.602ZM109.82 79V70.8125H111.734L111.789 71.7812H111.828C112.068 71.4479 112.398 71.1771 112.82 70.9688C113.242 70.7552 113.708 70.6484 114.219 70.6484C115.057 70.6484 115.734 70.8854 116.25 71.3594C116.766 71.8333 117.023 72.651 117.023 73.8125V79H114.992V73.7812C114.992 73.224 114.87 72.8307 114.625 72.6016C114.38 72.3672 114.034 72.25 113.586 72.25C113.211 72.25 112.87 72.3542 112.562 72.5625C112.255 72.7708 112.018 73.0547 111.852 73.4141V79H109.82ZM118.586 75.0312V74.7812C118.586 73.5104 118.961 72.4922 119.711 71.7266C120.466 70.9609 121.458 70.5781 122.688 70.5781C123.917 70.5781 124.906 70.9609 125.656 71.7266C126.411 72.4922 126.789 73.5104 126.789 74.7812V75.0312C126.789 76.2969 126.411 77.3151 125.656 78.0859C124.906 78.8516 123.917 79.2344 122.688 79.2344C121.458 79.2344 120.466 78.8516 119.711 78.0859C118.961 77.3151 118.586 76.2969 118.586 75.0312ZM120.664 74.6953V75.1172C120.664 75.9036 120.836 76.526 121.18 76.9844C121.529 77.4375 122.031 77.6641 122.688 77.6641C123.344 77.6641 123.844 77.4375 124.188 76.9844C124.536 76.526 124.711 75.901 124.711 75.1094V74.6953C124.711 73.9089 124.536 73.2891 124.188 72.8359C123.839 72.3776 123.339 72.1484 122.688 72.1484C122.036 72.1484 121.536 72.3776 121.188 72.8359C120.839 73.2891 120.664 73.9089 120.664 74.6953ZM128.461 79V67.0547H130.5V79H128.461ZM132.18 75.0312V74.7812C132.18 73.5104 132.555 72.4922 133.305 71.7266C134.06 70.9609 135.052 70.5781 136.281 70.5781C137.51 70.5781 138.5 70.9609 139.25 71.7266C140.005 72.4922 140.383 73.5104 140.383 74.7812V75.0312C140.383 76.2969 140.005 77.3151 139.25 78.0859C138.5 78.8516 137.51 79.2344 136.281 79.2344C135.052 79.2344 134.06 78.8516 133.305 78.0859C132.555 77.3151 132.18 76.2969 132.18 75.0312ZM134.258 74.6953V75.1172C134.258 75.9036 134.43 76.526 134.773 76.9844C135.122 77.4375 135.625 77.6641 136.281 77.6641C136.938 77.6641 137.438 77.4375 137.781 76.9844C138.13 76.526 138.305 75.901 138.305 75.1094V74.6953C138.305 73.9089 138.13 73.2891 137.781 72.8359C137.432 72.3776 136.932 72.1484 136.281 72.1484C135.63 72.1484 135.13 72.3776 134.781 72.8359C134.432 73.2891 134.258 73.9089 134.258 74.6953ZM142 81.2656L142.945 79.9453C143.148 80.1641 143.464 80.3672 143.891 80.5547C144.323 80.7422 144.797 80.8359 145.312 80.8359C145.927 80.8359 146.419 80.651 146.789 80.2812C147.164 79.9115 147.352 79.3646 147.352 78.6406V78.1016C147.138 78.4297 146.836 78.6875 146.445 78.875C146.055 79.0573 145.589 79.1484 145.047 79.1484C144 79.1484 143.159 78.7682 142.523 78.0078C141.888 77.2474 141.57 76.2552 141.57 75.0312V74.7812C141.57 73.5521 141.885 72.5573 142.516 71.7969C143.151 71.0365 143.995 70.6562 145.047 70.6562C145.573 70.6562 146.044 70.7656 146.461 70.9844C146.883 71.2031 147.188 71.474 147.375 71.7969H147.414L147.469 70.8125H149.383V78.5859C149.383 79.8151 149.01 80.7604 148.266 81.4219C147.521 82.0833 146.573 82.4141 145.422 82.4141C144.719 82.4141 144.07 82.3047 143.477 82.0859C142.883 81.8672 142.391 81.5938 142 81.2656ZM143.641 75.1016C143.641 75.8307 143.797 76.4297 144.109 76.8984C144.427 77.362 144.917 77.5938 145.578 77.5938C146.016 77.5938 146.385 77.4714 146.688 77.2266C146.995 76.9766 147.216 76.6927 147.352 76.375V73.4688C147.211 73.1146 146.987 72.8177 146.68 72.5781C146.372 72.3385 145.997 72.2188 145.555 72.2188C144.909 72.2188 144.427 72.4531 144.109 72.9219C143.797 73.3906 143.641 73.987 143.641 74.7109V75.1016ZM151.516 79V70.8125H153.555V79H151.516ZM151.328 68.4531C151.328 68.1354 151.432 67.8698 151.641 67.6562C151.849 67.4427 152.148 67.3359 152.539 67.3359C152.93 67.3359 153.229 67.4427 153.438 67.6562C153.646 67.8698 153.75 68.1354 153.75 68.4531C153.75 68.7708 153.643 69.0391 153.43 69.2578C153.221 69.4714 152.924 69.5781 152.539 69.5781C152.148 69.5781 151.849 69.4714 151.641 69.2578C151.432 69.0391 151.328 68.7708 151.328 68.4531ZM155.242 75.0312V74.7812C155.242 73.526 155.609 72.513 156.344 71.7422C157.078 70.9661 158.029 70.5781 159.195 70.5781C160.362 70.5781 161.273 70.9401 161.93 71.6641C162.586 72.388 162.914 73.3802 162.914 74.6406V75.3906H156.578V74.0469H160.898V73.875C160.898 73.375 160.753 72.9531 160.461 72.6094C160.169 72.2656 159.753 72.0938 159.211 72.0938C158.57 72.0938 158.086 72.3333 157.758 72.8125C157.435 73.2917 157.273 73.9167 157.273 74.6875V75.1094C157.273 75.875 157.448 76.4974 157.797 76.9766C158.146 77.4557 158.669 77.6953 159.367 77.6953C159.831 77.6953 160.229 77.5859 160.562 77.3672C160.901 77.1484 161.174 76.8932 161.383 76.6016L162.797 77.5469C162.536 78.0104 162.109 78.4089 161.516 78.7422C160.927 79.0703 160.219 79.2344 159.391 79.2344C158.083 79.2344 157.065 78.849 156.336 78.0781C155.607 77.3021 155.242 76.2865 155.242 75.0312ZM163.969 76.4688L165.969 76.4766V76.5781C165.969 76.9896 166.112 77.2943 166.398 77.4922C166.69 77.6901 167.078 77.7891 167.562 77.7891C168.052 77.7891 168.427 77.6953 168.688 77.5078C168.953 77.3203 169.086 77.0703 169.086 76.7578C169.086 76.4505 168.961 76.2188 168.711 76.0625C168.461 75.9062 167.893 75.7318 167.008 75.5391C166.07 75.3411 165.367 75.0443 164.898 74.6484C164.435 74.2474 164.203 73.7135 164.203 73.0469C164.203 72.3021 164.505 71.7057 165.109 71.2578C165.714 70.8047 166.526 70.5781 167.547 70.5781C168.568 70.5781 169.385 70.8099 170 71.2734C170.62 71.7318 170.93 72.3594 170.93 73.1562V73.2344H168.938V73.125C168.938 72.7812 168.823 72.513 168.594 72.3203C168.365 72.1276 168.013 72.0312 167.539 72.0312C167.07 72.0312 166.727 72.1146 166.508 72.2812C166.294 72.4479 166.188 72.6615 166.188 72.9219C166.188 73.1875 166.318 73.3984 166.578 73.5547C166.844 73.7057 167.424 73.8776 168.32 74.0703C169.253 74.2682 169.948 74.5651 170.406 74.9609C170.865 75.3568 171.094 75.9089 171.094 76.6172C171.094 77.4193 170.797 78.0573 170.203 78.5312C169.609 79 168.732 79.2344 167.57 79.2344C166.419 79.2344 165.531 78.9974 164.906 78.5234C164.281 78.0495 163.969 77.3906 163.969 76.5469V76.4688Z" fill="white"/>
</svg>
